HIERARCHY
ROOT joint_0
{
	OFFSET 0.000000 0.000000 0.000000
	CHANNELS 6 Xposition Yposition Zposition Zrotation Yrotation Xrotation 
	JOINT joint_1
	{
		OFFSET 6.004005 -1.946999 100.587036
		CHANNELS 3 Zrotation Yrotation Xrotation
		JOINT joint_2
		{
			OFFSET -4.601006 -0.824997 91.925903
			CHANNELS 3 Zrotation Yrotation Xrotation
			JOINT joint_3
			{
				OFFSET -5.420998 -1.130005 91.774048
				CHANNELS 3 Zrotation Yrotation Xrotation
				JOINT joint_4
				{
					OFFSET 4.308998 -3.777992 123.473999
					CHANNELS 3 Zrotation Yrotation Xrotation
					JOINT joint_5
					{
						OFFSET 25.565002 -6.305008 79.437988
						CHANNELS 3 Zrotation Yrotation Xrotation
						End Site
						{
							OFFSET 0.000000 0.000000 0.000000
						}
					}
				}
				JOINT joint_6
				{
					OFFSET -1.750000 -28.655998 68.557983
					CHANNELS 3 Zrotation Yrotation Xrotation
					JOINT joint_7
					{
						OFFSET -17.692001 -116.544006 -17.244019
						CHANNELS 3 Zrotation Yrotation Xrotation
						JOINT joint_8
						{
							OFFSET 27.063004 -23.640991 -266.895020
							CHANNELS 3 Zrotation Yrotation Xrotation
							JOINT joint_9
							{
								OFFSET 40.722000 -15.761017 -232.488953
								CHANNELS 3 Zrotation Yrotation Xrotation
								End Site
								{
									OFFSET 0.000000 0.000000 0.000000
								}
							}
						}
					}
				}
				JOINT joint_10
				{
					OFFSET 6.593002 24.457001 69.892944
					CHANNELS 3 Zrotation Yrotation Xrotation
					JOINT joint_11
					{
						OFFSET 24.311996 114.920002 -19.872925
						CHANNELS 3 Zrotation Yrotation Xrotation
						JOINT joint_12
						{
							OFFSET 21.081001 15.319000 -268.037964
							CHANNELS 3 Zrotation Yrotation Xrotation
							JOINT joint_13
							{
								OFFSET 27.794006 -8.947001 -234.744080
								CHANNELS 3 Zrotation Yrotation Xrotation
								End Site
								{
									OFFSET 0.000000 0.000000 0.000000
								}
							}
						}
					}
				}
			}
		}
	}
	JOINT joint_14
	{
		OFFSET -6.627998 -80.520004 -98.790039
		CHANNELS 3 Zrotation Yrotation Xrotation
		JOINT joint_15
		{
			OFFSET -43.638000 -13.751999 -502.538971
			CHANNELS 3 Zrotation Yrotation Xrotation
			JOINT joint_16
			{
				OFFSET -39.532999 -9.912994 -398.071007
				CHANNELS 3 Zrotation Yrotation Xrotation
				JOINT joint_17
				{
					OFFSET 174.940004 -34.660995 -75.688002
					CHANNELS 3 Zrotation Yrotation Xrotation
					End Site
					{
						OFFSET 0.000000 0.000000 0.000000
					}
				}
			}
		}
	}
	JOINT joint_18
	{
		OFFSET 12.591003 79.842003 -98.765015
		CHANNELS 3 Zrotation Yrotation Xrotation
		JOINT joint_19
		{
			OFFSET -39.080002 -1.297001 -503.101013
			CHANNELS 3 Zrotation Yrotation Xrotation
			JOINT joint_20
			{
				OFFSET -51.570000 -0.514000 -396.815987
				CHANNELS 3 Zrotation Yrotation Xrotation
				JOINT joint_21
				{
					OFFSET 178.987999 -11.521999 -73.244003
					CHANNELS 3 Zrotation Yrotation Xrotation
					End Site
					{
						OFFSET 0.000000 0.000000 0.000000
					}
				}
			}
		}
	}
}
MOTION
Frames: 13
Frame Time: 0.016667
213.567990 -151.515000 1091.284060 -2.824619 4.128687 -0.891402 0.746933 -1.946232 -2.073914 0.487297 0.308121 0.441268 0.391976 -0.475479 -0.341128 -0.090095 6.055785 1.913654 0.000000 0.000000 0.000000 -2.943811 3.103538 -4.190693 -0.717588 2.338296 -2.222922 1.897651 -29.621805 -1.999357 0.000000 0.000000 0.000000 3.993797 3.150649 6.529396 2.248788 2.228392 8.777529 0.069339 -24.018380 -5.547023 0.000000 0.000000 0.000000 1.453568 -5.760344 1.620062 0.572010 19.155783 0.120815 1.025928 -7.356463 -1.024896 0.000000 0.000000 0.000000 2.423719 -16.499505 1.291329 0.912539 39.303817 5.082025 1.504934 -3.532657 0.307582 0.000000 0.000000 0.000000 
220.560000 -152.864000 1090.704960 -3.275216 3.616410 -0.994451 1.008012 -1.346913 -1.773717 0.717326 0.208437 0.422563 0.621901 -0.352203 -0.328351 -0.082944 6.490761 2.003296 0.000000 0.000000 0.000000 -3.081283 3.440538 -4.574313 -0.703511 2.483077 -1.602465 1.892901 -31.302105 -2.775791 0.000000 0.000000 0.000000 4.297897 3.213049 6.405886 2.253787 2.256831 8.416570 0.092369 -25.528978 -5.000480 0.000000 0.000000 0.000000 1.596920 -4.941133 1.778652 0.701481 19.394723 0.145492 1.048453 -7.466896 -1.038636 0.000000 0.000000 0.000000 3.150916 -18.447757 1.112840 0.984976 44.434262 5.897320 1.599535 -2.073723 0.406411 0.000000 0.000000 0.000000 
227.643010 -154.018010 1089.873050 -3.609328 3.157485 -1.079079 1.204694 -0.741086 -1.420932 0.940242 0.102960 0.383054 0.852098 -0.223171 -0.304175 -0.086406 6.821273 2.086594 0.000000 0.000000 0.000000 -3.144238 3.708359 -4.878507 -0.714926 2.612873 -1.134629 1.857367 -32.502564 -3.415144 0.000000 0.000000 0.000000 4.539516 3.274167 6.231217 2.224759 2.277359 8.071875 0.080054 -26.689004 -4.600025 0.000000 0.000000 0.000000 1.673999 -4.159103 1.927852 0.798368 19.632505 0.153166 1.024368 -7.615015 -1.079508 0.000000 0.000000 0.000000 3.936609 -20.602610 0.870530 0.961175 49.434809 6.788298 1.573189 -0.333357 0.471773 0.000000 0.000000 0.000000 
234.662000 -154.974000 1088.594970 -3.626301 2.849635 -1.118888 1.266669 -0.230335 -1.064501 1.067247 0.035484 0.332051 0.986210 -0.112136 -0.251606 -0.100905 7.004864 2.154076 0.000000 0.000000 0.000000 -3.143442 3.839553 -5.024756 -0.771680 2.708441 -1.048503 1.812385 -33.166897 -3.745485 0.000000 0.000000 0.000000 4.709345 3.365096 6.019183 2.179213 2.305065 7.858013 0.029499 -27.493468 -4.547750 0.000000 0.000000 0.000000 1.631494 -3.510681 2.058343 0.798335 19.881567 0.147979 0.894741 -7.849549 -1.180323 0.000000 0.000000 0.000000 4.663080 -23.184239 0.544564 0.683980 54.424784 7.728163 1.146755 1.688232 0.407488 0.000000 0.000000 0.000000 
241.645000 -155.759990 1086.939940 -3.450359 2.633365 -1.161746 1.239928 0.259378 -0.615735 1.157573 -0.025823 0.238620 1.084783 -0.006792 -0.180121 -0.126443 7.055569 2.208091 0.000000 0.000000 0.000000 -3.064549 3.875258 -5.067115 -0.873707 2.788229 -1.216671 1.740538 -33.337757 -3.857603 0.000000 0.000000 0.000000 4.809756 3.463700 5.766050 2.116638 2.330755 7.710394 -0.049724 -27.950172 -4.743942 0.000000 0.000000 0.000000 1.492920 -2.940181 2.216112 0.743913 20.130726 0.122614 0.689963 -8.136847 -1.321760 0.000000 0.000000 0.000000 5.442968 -26.137103 0.111554 0.234234 59.450032 8.759117 0.359543 4.113034 0.237924 0.000000 0.000000 0.000000 
249.062000 -156.174000 1085.234990 -3.296778 2.431807 -1.230147 1.155700 0.787068 -0.077244 1.260485 -0.123090 0.094944 1.207710 0.096137 -0.107584 -0.153266 7.043749 2.247121 0.000000 0.000000 0.000000 -2.929530 3.836404 -5.073469 -0.981268 2.832062 -1.476153 1.649119 -32.991059 -3.853008 0.000000 0.000000 0.000000 4.854882 3.574508 5.508309 2.043971 2.392049 7.536508 -0.129688 -27.994448 -4.993104 0.000000 0.000000 0.000000 1.322364 -2.369670 2.386800 0.723335 20.391314 0.057569 0.520638 -8.396989 -1.443995 0.000000 0.000000 0.000000 6.288863 -28.862039 -0.413552 -0.125144 63.462053 9.816458 -0.238094 5.870207 0.088377 0.000000 0.000000 0.000000 
257.229000 -156.036000 1083.654050 -3.189456 2.258655 -1.263796 1.016882 1.283181 0.410073 1.349065 -0.233934 -0.032539 1.324243 0.201756 -0.043712 -0.172956 7.009884 2.264891 0.000000 0.000000 0.000000 -2.725884 3.712725 -5.071379 -1.069517 2.817170 -1.780094 1.547152 -32.040780 -3.744416 0.000000 0.000000 0.000000 4.867166 3.709583 5.256209 1.965171 2.514420 7.292728 -0.194521 -27.559297 -5.203666 0.000000 0.000000 0.000000 1.149998 -1.787925 2.481436 0.742595 20.643737 -0.043278 0.420191 -8.616192 -1.531267 0.000000 0.000000 0.000000 7.141765 -31.070504 -1.113897 -0.255017 66.003492 10.870505 -0.091571 5.867992 0.071315 0.000000 0.000000 0.000000 
265.967010 -155.425000 1082.069950 -3.002178 2.164420 -1.232588 0.826481 1.679959 0.805103 1.384159 -0.317363 -0.119139 1.379192 0.306708 0.020698 -0.188269 6.924898 2.260386 0.000000 0.000000 0.000000 -2.452681 3.494570 -5.029027 -1.146021 2.748170 -2.202073 1.437419 -30.485030 -3.489000 0.000000 0.000000 0.000000 4.834424 3.862752 4.983993 1.877362 2.675521 7.020887 -0.252756 -26.655501 -5.445411 0.000000 0.000000 0.000000 0.952008 -1.242152 2.485665 0.743621 20.880414 -0.162947 0.326810 -8.828804 -1.614831 0.000000 0.000000 0.000000 7.957220 -33.036447 -2.029406 -0.272057 67.560215 11.915651 0.606001 4.464669 0.144508 0.000000 0.000000 0.000000 
275.256010 -154.539000 1080.678960 -2.798891 2.064766 -1.182100 0.603393 2.072303 1.159566 1.416484 -0.388786 -0.198707 1.439849 0.399643 0.078507 -0.206359 6.808907 2.260632 0.000000 0.000000 0.000000 -2.188487 3.265435 -4.977016 -1.190880 2.652263 -2.536067 1.313101 -28.598271 -3.299346 0.000000 0.000000 0.000000 4.747149 3.988076 4.738976 1.778986 2.848674 6.663348 -0.291859 -25.354717 -5.556632 0.000000 0.000000 0.000000 0.761876 -0.716913 2.446167 0.741653 21.220393 -0.281649 0.254529 -8.951451 -1.673144 0.000000 0.000000 0.000000 8.570200 -34.712547 -2.856361 -0.264551 67.993211 12.693512 1.350575 2.638261 0.239150 0.000000 0.000000 0.000000 
285.030000 -153.543000 1079.670040 -2.610649 1.891726 -1.136787 0.356264 2.552105 1.490294 1.482917 -0.463745 -0.283803 1.556934 0.475435 0.124418 -0.234863 6.665737 2.288868 0.000000 0.000000 0.000000 -1.998043 3.063336 -4.932434 -1.194759 2.528242 -2.626656 1.155172 -26.484196 -3.349728 0.000000 0.000000 0.000000 4.567360 4.035985 4.552893 1.667223 3.002904 6.186791 -0.300928 -23.608791 -5.425988 0.000000 0.000000 0.000000 0.606329 -0.200222 2.391285 0.744352 21.762009 -0.388521 0.214527 -8.914923 -1.688274 0.000000 0.000000 0.000000 8.853709 -36.029820 -3.349622 -0.276887 67.023178 13.037519 1.814890 1.053269 0.315950 0.000000 0.000000 0.000000 
295.293000 -152.363010 1078.967040 -2.390771 1.689236 -1.070488 0.100929 3.055797 1.763164 1.542823 -0.521416 -0.356630 1.673767 0.538387 0.163883 -0.270266 6.488914 2.333082 0.000000 0.000000 0.000000 -1.842098 2.844984 -4.855234 -1.167464 2.362197 -2.586168 0.961795 -24.014669 -3.556457 0.000000 0.000000 0.000000 4.306384 4.023282 4.377065 1.538741 3.129259 5.642777 -0.284303 -21.368495 -5.107031 0.000000 0.000000 0.000000 0.481493 0.292105 2.297726 0.729858 22.454888 -0.485053 0.190895 -8.740516 -1.670160 0.000000 0.000000 0.000000 8.849915 -36.977636 -3.594560 -0.268502 64.588792 13.038780 2.119030 -0.443830 0.387647 0.000000 0.000000 0.000000 
306.312010 -150.832000 1078.317990 -2.205364 1.502535 -0.985372 -0.095376 3.479970 1.983082 1.582172 -0.565928 -0.416942 1.765577 0.588452 0.196977 -0.308693 6.318443 2.391274 0.000000 0.000000 0.000000 -1.723824 2.674640 -4.759818 -1.121145 2.222974 -2.482173 0.765930 -21.483674 -3.786949 0.000000 0.000000 0.000000 4.068573 4.026052 4.206251 1.401041 3.281034 5.011441 -0.243098 -19.021546 -4.582165 0.000000 0.000000 0.000000 0.398815 0.764837 2.143097 0.704670 23.206941 -0.552195 0.180186 -8.465956 -1.627442 0.000000 0.000000 0.000000 8.627383 -37.565596 -3.653142 -0.242942 61.163539 12.741040 2.190371 -1.685397 0.401138 0.000000 0.000000 0.000000 
318.242000 -148.835010 1077.682010 -2.071751 1.390536 -0.861026 -0.188912 3.724312 2.124184 1.582068 -0.590733 -0.455610 1.803271 0.630941 0.226507 -0.347908 6.176349 2.461630 0.000000 0.000000 0.000000 -1.655722 2.591307 -4.662267 -1.062739 2.147865 -2.328516 0.585848 -19.046611 -3.969105 0.000000 0.000000 0.000000 3.921567 4.086302 4.042692 1.261965 3.497530 4.244170 -0.169102 -16.800008 -3.776164 0.000000 0.000000 0.000000 0.365641 1.192331 1.889817 0.661446 23.945263 -0.573303 0.173492 -8.081569 -1.561184 0.000000 0.000000 0.000000 8.217312 -37.797161 -3.587767 -0.186340 56.852744 12.171416 2.087186 -2.593781 0.370463 0.000000 0.000000 0.000000 
